# xmcd CD database file
#
# Track frame offsets:
#	150
#	40033
#	69795
#	88801
#	122540
#	142593
#	164200
#	191384
#	219309
#	237211
#
# Disc length: 3554 seconds
#
# Revision: 0
# Processed by: cddbd v1.5.2PL0 Copyright (c) Steve Scherf et al.
# Submitted via: CDex 1.70beta2
#
DISCID=7d0de00a
DTITLE=Mark Zubek - Twentytwodollarfishlunch
DYEAR=2007
DGENRE=Jazz
TTITLE0=The Angry Giant
TTITLE1=Giant Things by the Side of the Highway
TTITLE2=Paradox
TTITLE3=Turkey
TTITLE4=2nd Time Out
TTITLE5=Better Place
TTITLE6=Monkey
TTITLE7=On Track
TTITLE8=Right Between the Eyes
TTITLE9=Plastified
EXTD=YEAR: 2007
EXTT0=
EXTT1=
EXTT2=
EXTT3=
EXTT4=
EXTT5=
EXTT6=
EXTT7=
EXTT8=
EXTT9=
PLAYORDER=
